# xmcd
#
# Track frame offsets:
#	150
#	8194
#	48386
#	64978
#	106003
#	116796
#
# Disc length: 2751 seconds
#
# Revision: 1
# Processed by: cddbd v1.5.2PL0 Copyright (c) Steve Scherf et al.
# Submitted via: audiograbber 1.83.01
#
DISCID=4a0abd06
DTITLE=Grateful Dead - 71-02-24 Capitol Theatre, Port Chester NY
DYEAR=1900
DGENRE=
TTITLE0=Tuning
TTITLE1=Truckin'
TTITLE2=Not Fade Away
TTITLE3=Going Down The Road Feeling Bad > Jam
TTITLE4=Not Fade Away
TTITLE5=Turn On Your Lovelight
EXTD=
EXTT0=
EXTT1=
EXTT2=
EXTT3=
EXTT4=
EXTT5=
PLAYORDER=
